<?xml version="1.0" standalone="no"?><!DOCTYPE svg PUBLIC "-//W3C//DTD SVG 1.1//EN" "http://www.w3.org/Graphics/SVG/1.1/DTD/svg11.dtd"><svg t="1512886903959" class="icon" style="" viewBox="0 0 1024 1024" version="1.1" xmlns="http://www.w3.org/2000/svg" p-id="5257" xmlns:xlink="http://www.w3.org/1999/xlink" width="800" height="800"><defs><style type="text/css"></style></defs><path d="M886.4 385.28l-172.16-199.04c-7.04-8.32-17.92-13.44-28.8-13.44L339.84 172.8c-10.88 0-21.76 4.48-28.8 12.8l-172.8 197.12c-12.16 14.08-12.8 35.2-0.64 49.28l344.96 423.68c7.04 8.96 17.92 14.08 29.44 14.08 0 0 0 0 0 0 11.52 0 22.4-5.12 29.44-14.08l344.96-422.4C898.56 419.84 898.56 399.36 886.4 385.28zM372.48 387.2l139.52-160 138.24 160L372.48 387.2zM644.48 425.6 512 778.24 379.52 425.6 644.48 425.6zM338.56 425.6 473.6 785.28 181.12 425.6 338.56 425.6zM685.44 425.6l158.72 0L550.4 785.28 685.44 425.6zM837.12 387.2l-136.32 0c-0.64-0.64-1.28-1.92-1.92-2.56L548.48 211.2 684.8 211.2 837.12 387.2zM339.84 211.2l135.68 0L325.12 383.36c-1.28 1.28-1.92 2.56-2.56 3.84L185.6 387.2 339.84 211.2z" p-id="5258"></path></svg>