<?xml version="1.0" standalone="no"?><!DOCTYPE svg PUBLIC "-//W3C//DTD SVG 1.1//EN" "http://www.w3.org/Graphics/SVG/1.1/DTD/svg11.dtd"><svg t="1512896605716" class="icon" style="" viewBox="0 0 1220 1024" version="1.1" xmlns="http://www.w3.org/2000/svg" p-id="1935" data-spm-anchor-id="a313x.7781069.0.i0." xmlns:xlink="http://www.w3.org/1999/xlink" width="953.125" height="800"><defs><style type="text/css"></style></defs><path d="M443.15234 428.511319l-110.025531 270.510298h55.012765l23.922383-61.134979h118.23932l23.573787 61.134979h55.012766l-107.52-270.510298H443.15234z m-12.854468 163.709277l41.417532-105.058043h0.718979l40.371745 105.058043H430.297872z m313.58366-163.709277h-105.363064v270.510298H690.655319v-95.907404h53.226213c77.148596 0 105.733447-37.953362 105.733447-87.846128 0-48.128-27.865872-86.756766-105.733447-86.756766z m-6.078638 129.26366H690.655319v-83.597617h47.866553c39.30417 0 58.585872 14.401362 58.585873 41.090723 0 27.40834-18.933106 42.158298-59.304851 42.506894z m152.162042-129.26366v270.510298h52.507234V428.511319h-52.507234z" p-id="1936"></path><path d="M1093.283404 444.067404c4.422809-20.283915 6.906553-41.286809 6.906553-62.877957 0-162.445617-131.682043-294.12766-294.105872-294.12766-122.988936 0-228.199489 75.558128-272.122553 182.707745a219.419234 219.419234 0 0 0-120.025872-35.643915c-115.385191 0-209.92 88.630468-219.593532 201.48834C95.62417 457.553702 21.787234 545.486979 21.787234 650.806468c0 121.812426 98.761532 220.573957 220.595745 220.573958h735.275574v-0.610043c122.836426-6.405447 220.573957-107.737872 220.573958-232.230128a232.556936 232.556936 0 0 0-104.949107-194.472851z m-127.891064 378.313532H242.382979a171.574468 171.574468 0 0 1-171.574468-171.574468 171.552681 171.552681 0 0 1 171.574468-171.574468c0.653617 0 1.285447 0.087149 1.939064 0.087149a175.474383 175.474383 0 0 1-1.939064-24.597787 171.574468 171.574468 0 0 1 171.552681-171.574468 171.269447 171.269447 0 0 1 147.717446 84.621617c7.015489-129.067574 113.576851-231.685447 244.430979-231.685447 135.364085 0 245.106383 109.742298 245.106383 245.106383a244.060596 244.060596 0 0 1-16.275064 87.214298 183.818894 183.818894 0 0 1-69.523064 353.977191z" p-id="1937"></path></svg>