<?xml version="1.0" standalone="no"?><!DOCTYPE svg PUBLIC "-//W3C//DTD SVG 1.1//EN" "http://www.w3.org/Graphics/SVG/1.1/DTD/svg11.dtd"><svg t="1512910292833" class="icon" style="" viewBox="0 0 1024 1024" version="1.1" xmlns="http://www.w3.org/2000/svg" p-id="1550" xmlns:xlink="http://www.w3.org/1999/xlink" width="800" height="800"><defs><style type="text/css"></style></defs><path d="M935.0912 332.7232c-23.1424-54.7328-56.2432-103.8336-98.4064-145.9712-42.1376-42.1376-91.2384-75.264-145.9456-98.4064-113.3056-47.8976-244.1984-47.8976-357.504 0-54.6816 23.1168-103.7824 56.2432-145.9456 98.4064-42.1376 42.1376-75.264 91.264-98.4064 145.9712-23.9616 56.6528-36.096 116.7872-36.096 178.7392 0 61.9776 12.16 122.1376 36.096 178.7392 23.1424 54.7072 56.2432 103.808 98.4064 145.9712 42.1632 42.1632 91.264 75.264 145.9456 98.3808 56.6272 23.9616 116.7616 36.096 178.7392 36.096s122.1376-12.16 178.7392-36.096c54.6816-23.1168 103.7824-56.2176 145.9456-98.3808 42.1376-42.1376 75.2384-91.2384 98.4064-145.9712 23.9616-56.6272 36.096-116.7616 36.096-178.7392C971.2128 449.4848 959.0528 389.3504 935.0912 332.7232zM921.0368 511.4624c0 225.536-183.4752 409.0112-409.0368 409.0112S102.9632 736.9984 102.9632 511.4624c0-225.536 183.4752-409.0368 409.0368-409.0368S921.0368 285.9264 921.0368 511.4624z" p-id="1551"></path><path d="M512 264.1408c-136.3712 0-247.3216 110.9504-247.3216 247.3216 0 136.3968 110.9504 247.3472 247.3216 247.3472 136.3968 0 247.3472-110.9504 247.3472-247.3472C759.3472 375.0912 648.3968 264.1408 512 264.1408zM710.3744 511.4624c0 111.2064-88.9856 201.6768-198.3744 201.6768s-198.3744-90.4704-198.3744-201.6768 88.9856-201.7024 198.3744-201.7024S710.3744 400.256 710.3744 511.4624z" p-id="1552"></path></svg>