<?xml version="1.0" standalone="no"?><!DOCTYPE svg PUBLIC "-//W3C//DTD SVG 1.1//EN" "http://www.w3.org/Graphics/SVG/1.1/DTD/svg11.dtd"><svg t="1512917914449" class="icon" style="" viewBox="0 0 1024 1024" version="1.1" xmlns="http://www.w3.org/2000/svg" p-id="2977" xmlns:xlink="http://www.w3.org/1999/xlink" width="800" height="800"><defs><style type="text/css"></style></defs><path d="M870.964046 118.925576 348.810802 118.925576l-11.602246 0L152.250054 118.925576c-49.056276 0-89.025593 39.974433-89.025593 89.030709l0 437.880909c0 49.055253 39.968293 89.022523 89.025593 89.022523l52.401464 0c7.266497 0 10.743692 3.635807 14.377452 9.086959l76.238358 154.386206c1.508353 3.765767 3.541663 7.268544 7.41897 9.854439 1.518586 0.756223 3.358491 1.50733 5.246491 2.133593 1.677199 1.293459 4.466732 1.472538 7.4159 1.49198 0.01842 0.001023 0.039909 0.004093 0.058328 0.004093 0.199545 0 0.399089-0.001023 0.597611-0.002047 0.199545 0.001023 0.400113 0.002047 0.599657 0.002047 0.01842 0 0.038886-0.00307 0.057305-0.004093 2.950192-0.019443 5.738701-0.198521 7.4159-1.49198 1.890047-0.626263 3.727904-1.37737 5.247514-2.133593 3.876284-2.584871 5.909593-6.087649 7.41897-9.852392l86.661755-154.388253c3.632737-5.451152 13.743002-9.086959 21.010523-9.086959l426.547793 0c49.055253 0 89.024569-39.96727 89.024569-89.022523L959.988616 207.956286C959.988616 158.90001 920.019299 118.925576 870.964046 118.925576zM914.567123 644.014686c0 23.620977-19.9821 43.609217-43.603077 43.609217L464.402447 687.623903l-30.362518-0.034792c-14.532995 0-28.727275 9.114588-37.813211 20.024056l-23.502273 44.204781-54.822606 102.856599-51.03535-102.856599-21.60711-44.204781c-9.085936-10.909467-17.59575-20.024056-32.127721-20.024056l-67.315128 0.034792 6.433526 0c-23.620977 0-43.6041-19.98824-43.6041-43.609217l0-437.872722c0-23.620977 19.9821-43.608194 43.6041-43.608194l184.958502 0 11.602246 0 522.153244 0c23.620977 0 43.603077 19.986193 43.603077 43.608194L914.567123 644.014686z" p-id="2978"></path></svg>