<?xml version="1.0" standalone="no"?><!DOCTYPE svg PUBLIC "-//W3C//DTD SVG 1.1//EN" "http://www.w3.org/Graphics/SVG/1.1/DTD/svg11.dtd"><svg t="1513302140513" class="icon" style="" viewBox="0 0 1024 1024" version="1.1" xmlns="http://www.w3.org/2000/svg" p-id="2022" xmlns:xlink="http://www.w3.org/1999/xlink" width="800" height="800"><defs><style type="text/css"></style></defs><path d="M307.2 908.8h51.2V115.2h-51.2v793.6z m332.8 0h51.2V115.2H640v793.6z m-512.021333 0A76.885333 76.885333 0 0 1 51.2 832.085333V89.6L25.6 115.2h870.528A76.672 76.672 0 0 1 972.8 192.192V846.506667a25.6 25.6 0 1 0 51.2 0V192.213333A127.872 127.872 0 0 0 896.128 64H25.6A25.6 25.6 0 0 0 0 89.6v742.485333A128.085333 128.085333 0 0 0 127.978667 960H896a25.6 25.6 0 1 0 0-51.2H127.978667z" p-id="2023"></path></svg>