<?xml version="1.0" standalone="no"?><!DOCTYPE svg PUBLIC "-//W3C//DTD SVG 1.1//EN" "http://www.w3.org/Graphics/SVG/1.1/DTD/svg11.dtd"><svg t="1512899654003" class="icon" style="" viewBox="0 0 1024 1024" version="1.1" xmlns="http://www.w3.org/2000/svg" p-id="1870" xmlns:xlink="http://www.w3.org/1999/xlink" width="800" height="800"><defs><style type="text/css"></style></defs><path d="M765.952 322.048c-60.928-73.728-153.6-120.32-256.512-120.32-107.008 0-202.24 50.176-263.168 128.512-106.496 27.136-184.832 121.856-184.832 235.52 0 134.144 109.568 242.688 245.248 242.688H317.44c54.272 38.4 120.32 60.928 192 60.928 75.264 0 144.896-25.088 201.216-67.584h2.048c135.168 0 245.248-108.544 245.248-242.688-0.512-116.224-82.432-212.992-192-237.056z m-137.216 398.848c-37.376 26.624-80.384 40.448-124.928 40.448-7.168 0-14.336-0.512-22.016-1.024-1.536 0-3.072-0.512-4.608-0.512l-12.288-1.536c-1.024 0-2.56-0.512-3.584-1.024-3.072-0.512-5.632-1.536-8.704-2.048-4.096-1.024-8.704-2.048-12.8-3.584-2.048-0.512-4.608-1.536-6.656-2.048-4.608-1.536-9.728-3.584-14.336-5.12-1.536-0.512-2.56-1.024-4.096-2.048-5.632-2.56-10.752-5.12-15.872-7.68-0.512-0.512-1.024-0.512-1.536-1.024-17.92-10.24-34.304-22.528-49.152-37.376-0.512-0.512-1.024-1.024-1.024-1.536-4.096-4.608-8.704-9.216-12.8-13.824-1.024-1.536-2.048-2.56-3.072-4.096-2.56-3.584-5.632-6.656-8.192-10.752-0.512-0.512-0.512-1.024-1.024-1.536-24.576-35.84-38.4-79.36-38.4-125.952h-38.4c-1.024 0-2.048-0.512-2.56-1.536-0.512-1.024-0.512-2.048 0-3.072L307.2 435.2c0.512-0.512 1.536-1.024 2.56-1.024s2.048 0.512 2.56 1.024l64.512 98.816c0.512 1.024 0.512 2.048 0 3.072-0.512 1.024-1.536 1.536-2.56 1.536h-38.4c0 39.936 13.824 76.288 36.352 105.472 0.512 1.024 1.536 1.536 2.048 2.56 3.072 4.096 6.656 7.68 9.728 11.264l0.512 0.512c11.264 11.264 24.064 20.992 37.888 28.672 0 0 0.512 0 0.512 0.512 4.096 2.048 8.192 4.096 12.8 6.144 1.024 0.512 1.536 1.024 2.56 1.024 3.584 1.536 7.68 3.072 11.264 4.096l4.608 1.536c3.072 1.024 6.656 2.048 10.24 2.56l6.144 1.536c3.584 0.512 7.168 1.024 10.24 1.536 2.048 0 3.584 0.512 5.632 0.512 4.608 0.512 9.216 0.512 13.824 0.512 34.304 0.512 68.096-9.728 97.28-30.208 11.776-8.704 28.16-5.632 36.352 6.656 9.728 12.288 6.656 29.184-5.12 37.376z m134.144-177.664l-64.512 98.816c-0.512 0.512-1.536 1.024-2.56 1.024s-2.048-0.512-2.56-1.024l-64.512-98.816c-0.512-1.024-0.512-2.048 0-3.072s1.536-1.536 2.56-1.536h38.4c0-40.448-14.336-77.824-37.888-107.008 0 0 0-0.512-0.512-0.512-16.896-20.48-37.888-36.864-62.464-47.616-0.512 0-1.024-0.512-1.024-0.512l-12.288-4.608c-1.024-0.512-2.56-1.024-3.584-1.024-3.584-1.024-7.68-2.048-11.264-3.072-1.536-0.512-3.584-1.024-5.12-1.024-4.096-1.024-7.68-1.536-11.776-2.048-1.536 0-3.072-0.512-4.608-0.512-4.608-0.512-9.728-0.512-14.336-0.512-34.304-0.512-67.584 10.24-96.256 30.72-11.776 8.704-28.16 5.632-36.352-6.656-8.192-12.288-5.632-28.672 6.656-37.376 36.864-26.624 80.384-39.936 124.416-39.936h3.584c5.632 0 11.264 0.512 17.408 1.024 2.56 0 4.608 0.512 7.168 1.024 3.584 0.512 7.168 0.512 10.24 1.536 1.024 0 2.56 0.512 3.584 1.024l7.68 1.536c4.608 1.024 9.216 2.048 13.824 3.584 2.048 0.512 3.584 1.024 5.632 2.048 5.12 1.536 10.24 3.584 15.36 5.632 1.024 0.512 1.536 1.024 2.56 1.024 31.744 13.824 59.392 34.816 81.408 62.464 0.512 0.512 0.512 1.024 1.024 1.536 3.072 4.096 6.656 8.192 9.728 12.288 0.512 0.512 0.512 1.024 1.024 2.048 24.064 35.84 38.4 78.848 38.4 125.952h38.4c1.024 0 2.048 0.512 2.56 1.536 0.512 0 0.512 1.536 0 2.048z" p-id="1871"></path></svg>