<?xml version="1.0" standalone="no"?><!DOCTYPE svg PUBLIC "-//W3C//DTD SVG 1.1//EN" "http://www.w3.org/Graphics/SVG/1.1/DTD/svg11.dtd"><svg t="1512916609896" class="icon" style="" viewBox="0 0 1024 1024" version="1.1" xmlns="http://www.w3.org/2000/svg" p-id="1875" xmlns:xlink="http://www.w3.org/1999/xlink" width="800" height="800"><defs><style type="text/css"></style></defs><path d="M853.333333 0 170.666667 0C76.416 0 0 76.416 0 170.666667l0 682.666667c0 94.250667 76.416 170.666667 170.666667 170.666667l682.666667 0c94.250667 0 170.666667-76.416 170.666667-170.666667L1024 170.666667C1024 76.416 947.584 0 853.333333 0zM767.701333 512 725.333333 512l0 234.496C725.333333 758.357333 716.16 768 704.426667 768l-128.853333 0C564.053333 768 554.666667 758.784 554.666667 746.88l0-85.76C554.666667 649.472 545.536 640 533.12 640l-42.24 0C478.976 640 469.333333 649.216 469.333333 661.12l0 85.76C469.333333 758.528 460.16 768 448.426667 768L319.573333 768C308.053333 768 298.666667 758.101333 298.666667 746.496L298.666667 512 256.298667 512c-23.722667 0-29.354667-13.610667-12.672-30.293333l238.08-238.08c16.725333-16.725333 43.904-16.682667 60.586667 0l238.08 238.08C797.098667 498.432 791.466667 512 767.701333 512z" p-id="1876" data-spm-anchor-id="a313x.7781069.0.i2." class="selected"></path></svg>