<?xml version="1.0" standalone="no"?><!DOCTYPE svg PUBLIC "-//W3C//DTD SVG 1.1//EN" "http://www.w3.org/Graphics/SVG/1.1/DTD/svg11.dtd"><svg t="1512918155524" class="icon" style="" viewBox="0 0 1024 1024" version="1.1" xmlns="http://www.w3.org/2000/svg" p-id="1895" xmlns:xlink="http://www.w3.org/1999/xlink" width="800" height="800"><defs><style type="text/css"></style></defs><path d="M861.934076 268.352375L701.308431 103.127047l80.343521-82.615223c26.625975-27.347394 69.732016-27.347394 96.352875 0l64.242071 66.083992c26.620859 27.383209 26.620859 71.793943 0 99.177152l-80.312822 82.579407z m-466.635049 479.994084l-160.630761-165.225328 436.673152-445.662745 160.625645 165.225329-436.668036 445.662744z m-289.672597 135.498789l97.729198-268.516102 159.285137 163.879704-257.014335 104.636398z m721.336751 56.470193c22.486772 0 40.69108 18.726185 40.691079 41.857629 0 23.090512-18.204308 41.821814-40.691079 41.821814H107.52463c-22.44584 0-40.655265-18.731302-40.655264-41.821814 0-23.131444 18.209424-41.857629 40.655264-41.857629h719.438551z" p-id="1896"></path></svg>