<?xml version="1.0" standalone="no"?><!DOCTYPE svg PUBLIC "-//W3C//DTD SVG 1.1//EN" "http://www.w3.org/Graphics/SVG/1.1/DTD/svg11.dtd"><svg t="1513067044219" class="icon" style="" viewBox="0 0 1034 1024" version="1.1" xmlns="http://www.w3.org/2000/svg" p-id="5328" xmlns:xlink="http://www.w3.org/1999/xlink" width="807.8125" height="800"><defs><style type="text/css"></style></defs><path d="M85.333333 981.333333a42.666667 42.666667 0 0 1-85.333333 0V42.666667a42.666667 42.666667 0 0 1 85.333333 0zM42.666667 1024a42.666667 42.666667 0 0 1 0-85.333333h949.316266a42.666667 42.666667 0 0 1 0 85.333333z m197.4272-279.893333a42.257067 42.257067 0 0 1-59.733334-59.733334l231.2192-230.877866A42.257067 42.257067 0 0 1 471.04 513.2288z m402.295466-61.44a42.257067 42.257067 0 1 1-59.733333-59.733334l283.579733-283.579733a42.257067 42.257067 0 1 1 59.733334 59.733333z m-1.092266-59.5968A42.257067 42.257067 0 0 1 581.632 682.666667L411.989333 513.092267a42.257067 42.257067 0 0 1 59.733334-59.733334z" p-id="5329"></path></svg>