<?xml version="1.0" standalone="no"?><!DOCTYPE svg PUBLIC "-//W3C//DTD SVG 1.1//EN" "http://www.w3.org/Graphics/SVG/1.1/DTD/svg11.dtd"><svg t="1516842211160" class="icon" style="" viewBox="0 0 1025 1024" version="1.1" xmlns="http://www.w3.org/2000/svg" p-id="2041" xmlns:xlink="http://www.w3.org/1999/xlink" width="800.78125" height="800"><defs><style type="text/css"></style></defs><path d="M331.502964 331.496564c-11.110365 11.110365-11.110365 29.107109 0 40.191874l321.816594 321.790994c11.110365 11.161565 29.107109 11.110365 40.191874 0.0256 11.110365-11.110365 11.110365-29.081509 0-40.191874L371.720439 331.496564C360.610073 320.411799 342.61333 320.411799 331.502964 331.496564z" p-id="2042"></path><path d="M96.2141 59.958213 59.990213 96.2077c-79.97415 79.97415-79.99975 209.637745 0 289.611895l126.719604 126.719604c62.668604 62.719804 155.749913 75.878163 231.602476 40.243074 0.281599-0.128 0.537598-0.230399 0.844797-0.332799 0.537598-0.255999 1.177596-0.486398 1.715195-0.742398-0.0512-0.128 0.0512 0.128 0 0 2.713592-1.356796 5.171184-3.07199 7.449577-5.350383 11.238365-11.238365 11.238365-29.491108 0-40.755073-9.036772-9.011172-22.24633-10.598367-33.049497-5.171184-0.0512-0.1536 0.0768 0.1536 0 0-56.575823 25.72792-125.849207 15.180753-172.364261-31.359902L103.433277 349.621308c-59.980613-60.006212-59.980613-157.234709 0-217.215321L132.386787 103.426877c59.980613-59.980613 157.234709-59.955013 217.215321 0l119.474827 119.474827c47.283052 47.257452 57.292621 117.810832 30.131106 174.847454 0 0 0.0256-0.0256 0 0-0.0768 0.204799 0.1024-0.204799 0 0 0.0512 0.0256-0.0256-0.0256 0 0-3.839988 10.239968-2.227193 22.707129 6.015981 30.950303 11.238365 11.238365 29.491108 11.263965 40.755073 0 2.303993-2.303993 4.377586-4.915185 5.759982-7.679976 0.1536 0.0256-0.179199-0.0256 0 0 37.196684-76.313361 24.217524-170.905066-39.167878-234.316068l-126.719604-126.719604C305.851844-19.990337 176.16265-19.990337 96.2141 59.958213z" p-id="2043"></path><path d="M963.411389 927.155503l-36.249487 36.223887c-79.97415 79.97415-209.637745 79.97415-289.611895-0.0256l-126.719604-126.694004c-62.668604-62.668604-75.878163-155.775513-40.217474-231.602476 0.128-0.281599 0.230399-0.537598 0.332799-0.844797 0.255999-0.537598 0.511998-1.203196 0.742398-1.715195 0.128 0.0512-0.128-0.0512 0 0 1.356796-2.713592 3.07199-5.171184 5.350383-7.449577 11.238365-11.238365 29.491108-11.238365 40.780673 0 8.985572 9.011172 10.572767 22.220731 5.119984 33.049497 0.179199 0.0768-0.128-0.0768 0 0-25.72792 56.601423-15.155153 125.823607 31.385502 172.364261l119.474827 119.449227c60.006212 60.006212 157.234709 60.006212 217.215321 0l28.95351-28.95351c60.006212-60.006212 59.980613-157.234709 0-217.189721l-119.449227-119.474827c-47.283052-47.257452-117.810832-57.292621-174.847454-30.131106-0.0256 0 0.0256 0 0 0-0.204799 0.128 0.230399-0.0768 0 0-0.0256 0 0.0256 0.0256 0 0-10.239968 3.865588-22.707129 2.252793-30.950303-6.015981-11.238365-11.263965-11.238365-29.491108-0.0256-40.755073 2.303993-2.278393 4.889585-4.351986 7.705576-5.734382-0.0256-0.128 0.0256 0.179199 0 0 76.313361-37.222284 170.905066-24.217524 234.290468 39.167878l126.719604 126.719604C1043.359939 717.492158 1043.359939 847.181353 963.411389 927.155503z" p-id="2044"></path></svg>