<?xml version="1.0" standalone="no"?><!DOCTYPE svg PUBLIC "-//W3C//DTD SVG 1.1//EN" "http://www.w3.org/Graphics/SVG/1.1/DTD/svg11.dtd"><svg t="1513068224231" class="icon" style="" viewBox="0 0 1024 1024" version="1.1" xmlns="http://www.w3.org/2000/svg" p-id="7352" xmlns:xlink="http://www.w3.org/1999/xlink" width="800" height="800"><defs><style type="text/css"></style></defs><path d="M501.858787 425.035066c0.056594-0.085493 0.136067-0.16617 0.187845-0.25046-0.210723-1.00786-0.380506-1.894102-0.459979-2.521456C501.682984 423.179496 501.77811 424.105475 501.858787 425.035066L501.858787 425.035066zM698.501023 639.750142c0.007225 0 0.007225-0.010837 0.007225-0.018062-0.024083-0.010837-0.114393-0.010837-0.130046-0.036124C698.403488 639.721243 698.472124 639.721243 698.501023 639.750142L698.501023 639.750142zM703.540322 640.379904c-1.218583-0.197478-3.956783 0.158946-5.039299-0.629762C697.837545 642.05365 698.839385 642.919422 703.540322 640.379904L703.540322 640.379904zM511.998796 0C229.224886 0 0.006021 229.22007 0.006021 511.98555c0 282.767889 229.218865 511.991571 511.992775 511.991571 282.760664 0 511.984346-229.223682 511.984346-511.991571C1023.984346 229.22007 794.75946 0 511.998796 0L511.998796 0zM839.02341 200.004177c-17.636944 0.531023-29.920311 0.567147-44.095371 10.348324-5.706389 3.944742-9.583699 9.175498-16.831379 11.205667-6.501117 1.829079-13.513991 0.226377-19.962126 2.414288-23.259044 7.8943-19.575599 57.718938-50.225615 50.190695-14.397825-3.529315-24.547467-20.544927-31.791534-31.653059-6.38552-9.77636-18.009022-17.864526-10.154458-30.09491-3.582297 0.91755-7.400605-0.131251-10.927512 0.538248 4.908048-10.780608 21.379391-9.837771 24.116387-15.347886 6.821417-13.812616-18.7893-15.25276-26.03698-17.166128 8.739601-9.31879 13.167201 3.131951 21.792409 1.018697 8.291664-2.039802-4.375821-12.961294-9.345281-14.185898-1.78573-0.441917-30.984765 8.065287-14.085954-7.056223-20.86041-13.296043-41.713595-26.592086-62.575209-39.90017-3.514866 14.797597 27.764912 23.20245 37.978373 28.417552-1.585844 6.109774-11.086458 15.008321-18.363037 12.401372-6.858745-2.460045-4.074788-13.811412-14.424316-12.672302-7.384951 17.178169 15.624837 12.156932 17.763378 22.685876 2.429942 11.99317-8.702273 6.909318-12.979356 6.704616-1.019901-0.056594-8.996082-8.313338-9.427162-2.060273-0.520186 7.424688 12.720467 4.528746 13.654875 12.026886-15.422543 0.622537-23.29276-4.942968-35.84826-13.28641-14.65551-9.725787-22.171711-8.846769-40.126547-8.846769 5.369232-2.205973 12.76502-3.843594 17.353973-7.390972 2.510618-1.944676 12.350798-11.505496 13.003438-13.640425 2.776732-9.216438-0.154129-8.514428-8.965979-14.555567-7.840114-5.362007-17.343136-14.985442-26.836525-16.877136-34.408117-6.869582-10.609621 31.058217-36.726074 36.288973 0.447938 0.022879 0.928387 0.046961 1.314914 0.046961l-1.495534 0c0.067431-0.004817 0.119209-0.03492 0.18062-0.046961-6.042342-0.214336-17.366014-1.688195-21.258978 1.506371-2.750241 2.245709-2.976618 11.258649-6.053179 14.51583-5.463154 5.834027-13.61273 6.994812-20.136726 11.199646-6.36505 4.103687-20.401635 14.635039-24.144082 21.781572-13.782513 26.330789 31.053401 34.504447 48.05095 42.200065 7.67876 3.479946 30.120197 8.238682 34.304561 14.048626 5.602833 7.805194-4.834596 15.122713 6.873194 20.606338 3.736426 1.748402 11.448902 2.104825 14.666347-1.516004 5.234369-5.895438-2.122887-7.226006-3.376391-14.038993-2.433554-13.115423 1.57019-7.906341 8.16523-12.775857 13.445355-9.923265 10.412143-10.530148 5.578751-26.347647-2.244505-7.356052-10.717993-27.905795-3.264406-33.342458 9.713745-7.083918 30.438088 3.84239 37.892879 4.761144 8.67217 1.059638 13.589851 13.072074 18.318484 17.988551 3.139176 3.263202 8.750439 10.185766 14.236471 9.435591 8.704682-1.18848 5.059769-8.799808 10.11111-12.308653 13.540482-9.391038 17.109534 3.365553 22.504052 16.129369 5.077831 11.982333 9.878712 16.431607 18.918142 24.121204 4.201222 3.577481 22.59075 16.349726 20.858002 24.223555-1.180051 5.303004-22.188569 13.346616-27.810669 15.126326-20.536498 6.505934-59.061547-10.649357-63.200154 21.922456 7.967752-2.970598 30.633158-21.485355 37.428084-12.706017 3.100644 3.978457-2.45282 9.77636-1.149948 13.730735 3.878514 11.858307 13.025113 7.726925 22.613628 5.80874-0.657457 0.409405-1.325751 0.765829-2.034986 1.082516 13.103381-6.731107 11.737894-5.331903 17.752541-16.248578 1.959125-3.57146 4.883966-12.20269 7.646248-14.757861 9.524696-8.756459 10.987719-2.726158 16.887973 4.031439 1.546107 1.778505 16.130573 22.783411 10.937145 21.733407-16.96263-3.401677-33.24974-2.946515-47.323653 6.33013-8.105023 5.35719-15.772946 12.575971-25.454179 16.136594-2.325182 0.844098-19.506964 2.476903-17.473182-0.453958 2.964577-4.272266 13.170813-7.100776 17.195027-11.712607-11.157502-4.596178-20.472679 5.553464-29.238771 11.487434-9.306748 4.403516-11.470576 12.609687-19.393775 19.800772-3.463088 3.13436-10.005146 3.673812-13.39719 7.800377-3.292101 4.007357-3.707527 10.302567-6.83105 14.106425-2.185502 2.663543-7.802785 1.053617-10.088231 5.06579-2.981435 5.242798 2.726158 10.11111 1.473859 13.886068-2.289058 6.864765-15.34307 12.68916-20.363103 17.627311 0.674315-0.643007 1.337792-1.305281 1.995249-1.9808-5.033278 5.276513-11.399532 9.159844-15.326212 15.269618 1.802588 8.620392 7.487303 29.188198 5.906275 33.920443-5.233164 15.562222-15.400868-8.467467-19.519005-14.677184-14.159407-21.334839-42.462566-7.057427-61.800951-5.289759-24.722066 2.263771-48.945621 34.357543-33.692861 60.406564 7.322336 12.490477 19.63701 17.325074 33.767518 14.433949 12.577175-2.570825 16.35093-20.163217 28.189971-20.487128 21.757489-0.577984 0.481653 21.327614-1.405224 29.361593-1.741177 7.443954 2.714117 8.13633 10.377223 9.982267 5.660632 1.351038 13.675345-2.425125 18.584597 0.806769 3.086194 2.038598 2.940494 13.214162 7.191086 9.692071-8.372341 6.937013-6.415624 23.381866 2.163828 29.326673 9.515063 6.597448 20.717118 0.48647 30.680119 3.018763 18.804954 4.804493 9.826934-1.430511 26.341626-11.400737 11.141848-6.714249 12.973335 1.269157 20.590684 1.29926 5.188612 0.022879 8.478304-7.452383 17.144454-5.276513 7.064652 1.776097 9.855833 7.229618 18.293197 8.487937 3.457067 0.511757 7.029732-1.302873 10.327854-0.939224 15.609183 1.732748 27.550576 11.702974 39.848392 20.719526 10.132784 7.421075 16.84342 5.917112 28.683666 9.299524 8.643271 2.468474 24.604061 14.98183 23.787659 25.964732-0.149313 1.965146-7.708863 11.845062-9.000898 16.297948 2.21681 1.532862 17.603229-1.907348 22.107892-2.232464-1.483493 1.723115-11.965475 9.0888-11.965475 5.183795 0 1.997658 7.419871 6.113386 9.221255 7.394584 5.469175-17.750133 14.44599-6.328926 25.256702-1.93143 9.187539 3.740039 20.491945 3.945946 30.291184 6.278352 8.321767 1.982004 26.660721 7.595675 32.827089 14.391804 7.418667 8.1857 2.291466 21.474518-3.201791 29.618073-7.180248 10.668623-18.010226 14.775923-22.487194 27.327811-3.542561 9.949756-0.887446 20.000659-2.909187 31.036543-2.733383 14.928848-4.924906 9.698092-14.543525 18.806158-8.085757 7.675147-0.136067 6.342171-11.146664 11.230954-11.0696 4.921294-20.812245 3.451047-28.474146 15.595938 0.307054-0.761012 0.55631-1.530454 0.77185-2.326386-3.236711 4.520317-4.851454 13.784921-6.383112 16.824154-3.864065 7.759437-9.19356 12.651831-15.299721 19.113212-2.34204 2.470882-23.862315 31.88064-25.108593 29.516926-1.599089-3.071745-18.570148 3.081378-19.378121-1.298056 0.675519 3.683445-0.158946 2.449208 4.050705 4.567279-3.89778 24.168165-14.123283 27.770932-37.853143 28.015372 2.039802 11.616276-8.599922 9.301932-13.544094 15.546568-2.893533 3.643708-4.269858 13.895701-6.277148 18.617109-1.252299 2.969393-10.51329 14.8566-10.51329 17.208273-0.010837 2.172257 3.112685 5.348761 6.043546 8.395219-16.731436 3.307755-33.790396 5.616079-51.11547 7.024915 3.246344-4.085625 4.025419-7.67876-6.308456-8.17125 2.767099-7.510181 9.262195-11.79208 12.008824-19.073476 1.306485-3.432985 0.227581-4.790043 1.329363-8.1857 3.778571-11.746323 2.140949-7.311499 0.010837-16.437627-4.992338-21.374575 1.774893-27.221847 7.601695-46.790222 5.982136-20.110235 5.42703-46.186951 9.258583-67.846906 1.818242-10.366386 4.793656-31.939643 1.195705-41.743698-4.05793-11.029863-21.900781-19.7213-30.073236-27.148395-11.572928-10.539781-17.721234-21.932089-26.313931-34.960814-4.364984-6.622735-9.334443-13.110606-12.737325-20.306508-7.276579-15.388827 0.006021-6.227779 1.231829-15.306946 1.171622-8.773317-1.050004-16.619451 2.434758-25.828665 3.854432-10.180949 13.474255-16.529141 16.636309-26.790768 2.842959-9.142986 0.679131-20.631624-8.710702-23.678082-5.23196-1.708666-11.009393 2.228851-16.261824 1.364283-7.331969-1.18848-15.630858-6.658859-21.383004-11.032272-8.031571-6.124223-11.040701-16.064346-19.592457-21.86827-7.159778-4.834596-12.253263-1.935043-19.910348-4.204834-7.99063-2.351673-12.921557-12.206302-19.36608-15.288884-9.667988-4.626281-15.115489 2.018128-25.322929 0.673111-8.684211-1.136702-21.92366-10.755321-30.033499-14.394213-16.493017-7.37893-26.535491-15.529711-33.126918-32.264759-5.649795-14.356884-13.884864-21.049459-23.578139-33.001689-9.820913-12.1184-12.898679-22.439029-28.044271-25.664903-1.77128-0.390139 3.707527 12.713242 4.274674 13.766859 5.40656 10.015983 13.534461 19.167398 20.069294 28.497025 9.618619 13.739164 5.518544 16.318418-4.262633 3.033212-11.188809-15.200982-24.165757-30.316471-33.868665-46.41092-3.666587-6.082079-2.95976-10.015983-9.011736-15.789803-5.842456-5.583567-13.493521-8.303705-19.382938-13.607913-21.174689-19.049393-25.02912-44.475877-22.614832-71.62066 0.788707-8.85279 3.985682-15.931891 2.574438-24.437891-1.161989-7.062243-5.334312-12.904699-10.542189-18.110169-1.677358-2.673177-5.895438-9.258583-6.138673-9.68003-4.805697-7.98461-8.545736-15.841581-16.185963-22.393272-4.380638-3.774959-15.722372-12.592829-26.394608-19.983801 47.96064-59.821355 110.721285-107.230502 182.722452-136.661935 0.574372 3.616013 2.1265 7.232026 4.456498 10.689094 5.921929 8.778134 11.559682 8.086961 23.115752 10.512086-1.240258 13.414048-16.916872 13.518808-27.525289 12.067827-12.667485-1.742381-25.991223-5.946012-36.964492 5.150079 6.0592 3.646116 22.693101 17.835626 20.482312 3.010334 12.13285-0.605679 23.861111-0.969328 35.735072 0.481653 4.753919 0.582801 20.691831 5.93397 25.009854 3.490783 1.813425-1.025922 3.74606-9.961797 5.66304-12.718059-3.383615 0.022879-7.010466-1.689399-10.385652-1.365487 7.860584-10.065352 15.694677-2.163828 25.697414 2.460045-11.011801 6.693778-4.476969 22.732838 6.290394 9.704112 8.843157-10.717993-2.165032-18.488267-13.395986-24.734108 11.324876-14.163019 18.311259-15.446625 28.966637 0.543064 1.756831-9.86065 9.713745-5.909888 18.029492-5.184999l0-2.466066c-3.66177 0.09031-7.566775-2.018128-11.193626-1.636418 8.473488-13.518808 3.06452-16.60741 15.178104-21.021764 9.64511-3.508845 37.167991-0.237214 40.556423-9.305544-19.258912 3.740039-42.523977 4.637118-59.899624 13.393578-7.493323 3.773755-16.421974 15.698289-23.902051 7.952098-7.669127-7.952098 5.486033-20.732772 12.213527-24.62694l-1.607518 0c30.473008-6.483055 62.029736-9.958185 94.410092-9.958185 20.923025 0 41.479993 1.548516 61.661272 4.302369-6.982771 3.665383-1.818242 6.143489-6.900889 9.89557-9.713745 7.140512-26.961755 13.104586-38.523845 17.620086 14.697654-0.038532 50.270168 13.777696 57.112055-6.834662-4.741878-0.724888-9.475327-1.455797-14.212388-2.186707 8.85279-5.871355 18.730298-10.620458 29.100296-14.107629 93.580444 18.540044 176.812564 66.00699 240.137949 132.605209C839.913265 200.004177 839.464123 199.992136 839.02341 200.004177L839.02341 200.004177zM921.88827 379.763256c0.845302-1.803792 2.811652-2.392613 3.624442-3.876106 1.70987-3.124727 1.329363-5.245206 3.432985-7.918382 2.254138-2.894737 5.299392-3.60638 7.816031-5.865335 1.01388-0.912733 1.581027-1.758035 2.044619-2.620195 7.551122 21.077154 13.569381 42.870767 17.950019 65.245977-0.136067 0.158946-0.211928 0.402181-0.376894 0.532227-1.096966 0.874201-8.274806 1.938655-9.746257 1.990433-5.195836 0.198682-9.056289-3.248752-12.78549-6.495096-3.800246-3.292101-8.262765-7.708863-10.962432-11.975108-2.8839-4.557646-1.10419-9.242929-0.893467-14.452011C922.160404 389.952634 920.030291 383.705589 921.88827 379.763256L921.88827 379.763256zM927.748788 614.506686c-8.796196-7.637819-19.173419-17.881383-25.422872-27.774545-6.678125-10.553027-2.5636-21.411903-2.075926-33.496588 0.406997-10.161683-4.555237-24.62694-0.239623-33.779559 1.982004-4.175935 6.526404-5.559485 8.40124-8.981632 3.972437-7.248884 3.094623-12.146095 7.973772-18.379895 5.233164-6.694983 12.271325-8.338625 18.102944-13.585035 6.10857-5.504095 5.938787-9.844996 9.81128-16.895198 2.826101-5.158508 9.478939-13.756022 15.776558-18.249848 3.413719 22.380026 5.193428 45.305525 5.193428 68.621164 0 40.350516-5.368027 79.453549-15.30815 116.715462C941.480727 626.511898 934.511202 620.402124 927.748788 614.506686L927.748788 614.506686zM927.748788 614.506686" p-id="7353"></path></svg>