<?xml version="1.0" standalone="no"?><!DOCTYPE svg PUBLIC "-//W3C//DTD SVG 1.1//EN" "http://www.w3.org/Graphics/SVG/1.1/DTD/svg11.dtd"><svg t="1512886810766" class="icon" style="" viewBox="0 0 1024 1024" version="1.1" xmlns="http://www.w3.org/2000/svg" p-id="4200" xmlns:xlink="http://www.w3.org/1999/xlink" width="400" height="400"><defs><style type="text/css"></style></defs><path d="M512 0c-282.76992 0-512 229.23008-512 512 0 282.77248 229.23008 512 512 512 282.76736 0 512-229.22752 512-512C1024 229.23008 794.76736 0 512 0zM512 950.85568c-241.96096 0-438.8608-196.89984-438.8608-438.85824s196.89984-438.8608 438.8608-438.8608c241.95584 0 438.85824 196.9024 438.85824 438.8608S753.95584 950.85568 512 950.85568z" p-id="4201"></path><path d="M718.19008 512.14592c-0.15104 0-0.22016-0.14848-0.36864-0.14848l-188.70784 0c-1.46432 0-2.63168-1.02144-2.92608-2.92864l0-231.20128c0-0.22016-0.22016-0.29184-0.22016-0.512-0.58624-19.67616-16.09216-35.54816-35.328-35.54816-19.2384 0-34.67008 15.80032-35.33056 35.47392 0 0.2176-0.22016 0.28928-0.22016 0.50944l0 247.0784 0 5.26848 0 11.18976 0.22016 0c0.512 22.8224 18.80064 41.10848 41.61792 41.54624l0 0.14592 4.3904 0 11.776 0 204.65408 0c0.14592 0 0.22016-0.14592 0.36608-0.14592 19.74784-0.44032 35.61984-16.02048 35.61984-35.40224C753.80992 528.16128 737.86624 512.58368 718.19008 512.14592z" p-id="4202"></path></svg>