<?xml version="1.0" standalone="no"?><!DOCTYPE svg PUBLIC "-//W3C//DTD SVG 1.1//EN" "http://www.w3.org/Graphics/SVG/1.1/DTD/svg11.dtd"><svg t="1513001721964" class="icon" style="" viewBox="0 0 1024 1024" version="1.1" xmlns="http://www.w3.org/2000/svg" p-id="3435" xmlns:xlink="http://www.w3.org/1999/xlink" width="800" height="800"><defs><style type="text/css"></style></defs><path d="M512 1024C230.4 1024 0 793.6 0 512S230.4 0 512 0s512 230.4 512 512S793.6 1024 512 1024zM512 85.333333C277.333333 85.333333 85.333333 277.333333 85.333333 512s192 426.666667 426.666667 426.666667 426.666667-192 426.666667-426.666667S746.666667 85.333333 512 85.333333z" p-id="3436"></path><path d="M640 597.333333c-12.8 0-21.333333-4.266667-29.866667-12.8L512 486.4l-98.133333 98.133333c-17.066667 17.066667-42.666667 17.066667-59.733333 0s-17.066667-42.666667 0-59.733333l128-128c17.066667-17.066667 42.666667-17.066667 59.733333 0l128 128c17.066667 17.066667 17.066667 42.666667 0 59.733333C661.333333 593.066667 652.8 597.333333 640 597.333333z" p-id="3437"></path></svg>