<?xml version="1.0" standalone="no"?><!DOCTYPE svg PUBLIC "-//W3C//DTD SVG 1.1//EN" "http://www.w3.org/Graphics/SVG/1.1/DTD/svg11.dtd"><svg t="1511507383749" class="icon" style="" viewBox="0 0 1024 1024" version="1.1" xmlns="http://www.w3.org/2000/svg" p-id="2439" xmlns:xlink="http://www.w3.org/1999/xlink" width="32" height="32"><defs><style type="text/css"></style></defs><path d="M932.864 55.808H91.136c-46.592 0-83.968 37.888-83.968 83.968v588.8c0 46.592 37.888 83.968 83.968 83.968h50.688v168.96c-0.512 10.24 7.68 11.264 12.288 8.192 44.032-30.208 197.632-135.68 258.048-176.64h521.216c46.592 0 83.968-37.888 83.968-83.968v-588.8c-0.512-46.592-38.4-84.48-84.48-84.48z m67.072 673.28c0 37.376-30.208 67.072-67.072 67.072H403.968L158.72 964.608v-168.448H91.136c-37.376 0-67.072-30.208-67.072-67.072v-588.8c0-37.376 30.208-67.072 67.072-67.072h841.216c37.376 0 67.072 30.208 67.072 67.072l0.512 588.8z m-454.144-311.296H360.448V266.24h-16.896v336.384h16.896V434.688h185.344v168.448h16.896V266.24h-16.896v151.552z m117.76 184.832h16.896V375.808h-16.896v226.816z m8.192-336.384c-13.824 0-25.088 11.264-25.088 25.088s11.264 25.088 25.088 25.088 25.088-11.264 25.088-25.088c0.512-13.824-11.264-25.088-25.088-25.088z" p-id="2440"></path></svg>